# xmcd
#
# Track frame offsets:
#	150
#	18502
#	33812
#	56395
#	70805
#	85537
#	104233
#	129401
#	148294
#	172769
#	194261
#	211328
#	236424
#	258924
#	275375
#	290540
#	307446
#	330919
#
# Disc length: 4772 seconds
#
# Revision: 1
# Processed by: cddbd v1.5.2PL0 Copyright (c) Steve Scherf et al.
# Submitted via: EZCDAudioConverter 2.4.0.1
#
DISCID=0212a212
DTITLE=Various Artist - Akella Presents - vol.93 - Blues-Rock
DYEAR=2016
DGENRE=Blues
TTITLE0=Rick Brannon  and Electric Detective - My Girl Suzi
TTITLE1=Ross Neilsen And The Sufferin' Bastartds - What You Can
TTITLE2=Davy Knowles and Back Door Slam - Tear Down the Walls
TTITLE3=Band of Friends - Succubus
TTITLE4=The Apocalypse Blues Revue - Whiskey in My Coffee
TTITLE5=Reverend Black Network - Just a Shadow
TTITLE6=The Steepwater Band - Won't Be Long For Now
TTITLE7=Rick Derringer - All Your Love
TTITLE8=Supersonic Blues Machine - Ain't No Love
TTITLE9=Rebel Storm - Gals From Mississippi
TTITLE10=Cold Truth - Whisper To Me
TTITLE11=Lisa Mann - Judge a Man Forever
TTITLE12=Absolution - Back To The Levee
TTITLE13=Fast Eddie Clarke - My New Life
TTITLE14=Manu Lanvin - She's Da Bomb
TTITLE15=Husky Burnette - Southbound High Head
TTITLE16=Julian Sas - The Road Is My Companion
TTITLE17=Jimmy Thackery And The Drivers - Red House
EXTD=
EXTT0=
EXTT1=
EXTT2=
EXTT3=
EXTT4=
EXTT5=
EXTT6=
EXTT7=
EXTT8=
EXTT9=
EXTT10=
EXTT11=
EXTT12=
EXTT13=
EXTT14=
EXTT15=
EXTT16=
EXTT17=
PLAYORDER=
